<svg width="45" height="36" viewBox="0 0 45 36" fill="none" xmlns="http://www.w3.org/2000/svg">
<g clip-path="url(#clip0_1_56)">
<path d="M25.2679 9.76219C25.6334 9.76219 25.9291 9.46126 25.9291 9.09282V8.89313C25.9291 8.52469 25.6334 8.22375 25.2679 8.22375C24.9051 8.22375 24.6094 8.52469 24.6094 8.89313V9.09282C24.6094 9.46126 24.9051 9.76219 25.2679 9.76219Z" fill="#00D6C0"/>
<path d="M42.2768 16.3688C42.8599 15.4941 43.2031 14.4422 43.2031 13.3059C43.2031 10.2656 40.7422 7.79344 37.7316 7.84125C34.894 7.88344 32.5446 10.2038 32.4275 13.0809C32.38 14.2931 32.7232 15.4238 33.3426 16.3547C32.6116 16.7822 31.8555 17.4403 31.1942 18.6075C29.8326 17.9775 28.2282 17.6344 26.861 17.3447C26.5346 17.2744 26.2193 17.2069 25.9263 17.1394V16.5769C27.3828 15.6881 28.4542 14.3606 28.4542 13.1119C28.4542 12.9656 28.4431 12.8306 28.4208 12.7125C28.4794 12.5747 28.5352 12.4369 28.5854 12.2991C30.0195 12.15 31.0463 11.3316 31.0463 10.2797L31.0519 8.80031C31.0519 8.055 30.466 7.47 29.7154 7.47H28.9816L28.9844 5.88094C28.9872 4.0725 28.2785 2.54812 26.9336 1.47094C25.7729 0.54 24.2132 0.0196875 22.5446 0C22.5391 0 22.5335 0 22.5307 0C20.8594 0.0196875 19.2997 0.54 18.139 1.47375C16.7941 2.55094 16.0854 4.07531 16.0882 5.88094V7.47H15.3544C14.6038 7.47 14.0179 8.055 14.0179 8.80312L14.0234 10.2825C14.0262 11.3316 15.0558 12.1472 16.4844 12.2991C16.5346 12.4369 16.5904 12.5747 16.649 12.7125C16.6267 12.8334 16.6155 12.9656 16.6155 13.1119C16.6155 14.3606 17.6869 15.6881 19.1434 16.5741V17.1394C18.8504 17.2069 18.5352 17.2716 18.2087 17.3419C16.822 17.64 15.1925 17.9859 13.8198 18.6328C13.1529 17.4459 12.394 16.785 11.6574 16.3547C12.2768 15.4238 12.62 14.2931 12.5725 13.0781C12.4554 10.2009 10.106 7.88062 7.26562 7.83844C4.25781 7.79344 1.79409 10.2628 1.79409 13.3059C1.79409 14.4394 2.13728 15.4941 2.72321 16.3659C1.04353 17.4178 0 19.2741 0 21.3047V24.3084C0 25.4278 0.892857 26.3334 1.99777 26.3334H7.9269C8.28962 26.3334 8.60212 26.0522 8.61328 25.6866C8.62444 25.3069 8.32589 24.9975 7.9548 24.9975H1.99777C1.62388 24.9975 1.31975 24.6881 1.31975 24.3084V21.3047C1.31975 19.665 2.20703 18.1744 3.61049 17.3925C3.87277 17.6316 4.16016 17.8425 4.46708 18.0253L6.68527 22.7784C6.79409 23.0119 7.02846 23.1581 7.28237 23.1581H7.28516C7.53906 23.1581 7.77065 23.0091 7.87946 22.7756L10.106 17.8988C10.3404 17.7469 10.5608 17.5753 10.7701 17.3869C11.3951 17.7047 12.0647 18.2053 12.6758 19.2966C11.7411 19.9688 11.0603 20.8716 10.8873 22.1372L9.93862 28.1841C9.93304 28.2178 9.93025 28.2516 9.93025 28.2881V31.32C9.93025 32.2931 10.7087 33.0834 11.6657 33.0834H16.8862C17.5363 33.0834 18.1362 32.85 18.5993 32.4563L21.6936 35.5669C21.9113 35.7863 22.1987 35.9916 22.5167 36C22.8376 36.0084 23.1669 35.7947 23.3817 35.5669L26.4174 32.5153C26.8722 32.8725 27.4414 33.0863 28.0636 33.0863H33.2812C34.2383 33.0863 35.0195 32.2959 35.0195 31.3228V28.2881C35.0195 28.2825 35.0167 28.2206 35.0112 28.1953L34.1881 22.1456C34.0151 20.8547 33.3119 19.9378 32.3465 19.2628C32.952 18.1969 33.6133 17.7019 34.2327 17.3869C34.442 17.5753 34.6624 17.7469 34.8996 17.9016L37.1261 22.7756C37.2349 23.0091 37.4665 23.1609 37.7232 23.1609C37.9799 23.1609 38.2115 23.0119 38.3203 22.7784L40.5385 18.0253C40.8454 17.8425 41.13 17.6316 41.3951 17.3925C42.7985 18.1744 43.6858 19.665 43.6858 21.3047V24.3084C43.6858 24.6881 43.3789 24.9975 43.005 24.9975H37.0759C36.7132 24.9975 36.4007 25.2788 36.3895 25.6444C36.3756 26.0241 36.6769 26.3334 37.048 26.3334H43.005C44.1071 26.3334 45.0028 25.425 45.0028 24.3084V21.3047C45 19.2741 43.9537 17.415 42.2768 16.3688ZM28.9844 10.17V8.80875H29.7154C29.7238 8.80875 29.7321 8.80875 29.7349 8.81156L29.7321 10.2797C29.7321 10.4709 29.4336 10.7269 28.9397 10.8731C28.9676 10.6369 28.9844 10.4006 28.9844 10.17ZM15.3404 10.2769L15.3348 8.81156C15.3404 8.80875 15.346 8.80875 15.3544 8.80875H16.0882V10.17C16.0882 10.4006 16.1021 10.6369 16.1328 10.8731C15.639 10.7269 15.3404 10.4681 15.3404 10.2769ZM7.27121 20.9166L6.23047 18.6863C6.54018 18.7425 6.85826 18.7734 7.18471 18.7734C7.56696 18.7734 7.94364 18.7313 8.30357 18.6553L7.27121 20.9166ZM11.2388 13.6856C11.0658 15.6572 9.50056 17.2434 7.5558 17.4178C5.01674 17.6484 2.90179 15.5025 3.12779 12.9291C3.30357 10.9575 4.86886 9.36844 6.81362 9.19406C9.34989 8.96344 11.4676 11.1122 11.2388 13.6856ZM17.4051 5.88094C17.4023 2.80125 20.0614 1.36688 22.5363 1.33594C25.014 1.36688 27.673 2.80125 27.6674 5.88094V6.57844C26.4146 5.72906 24.5759 5.22281 22.5474 5.22281C22.5391 5.22281 22.5335 5.22281 22.5251 5.22281C20.4994 5.22281 18.6579 5.72906 17.4051 6.57844V5.88094ZM17.6339 11.5847C17.6228 11.5453 17.6116 11.5031 17.5977 11.4609C17.4721 11.0194 17.4051 10.5863 17.4051 10.1672V8.35312C18.231 7.27031 20.2511 6.55594 22.5363 6.55875C22.5391 6.55875 22.5446 6.55875 22.5474 6.55875C24.8214 6.55875 26.8415 7.27312 27.6646 8.35312V10.1672C27.6646 10.6256 27.5865 11.1009 27.4358 11.5847C27.2321 11.4919 27.0173 11.4131 26.808 11.3344C24.9916 10.6341 23.7556 10.3444 22.5391 10.3388H22.5363C21.3198 10.3416 20.0809 10.6313 18.2673 11.3344C18.0525 11.4159 17.8404 11.4919 17.6339 11.5847ZM17.9325 13.1119V13.1091C17.9325 12.9909 17.9994 12.8841 18.1055 12.8306C18.3371 12.7125 18.7305 12.5859 18.7305 12.5859C20.3878 11.9447 21.49 11.6831 22.5363 11.6775C23.5798 11.6831 24.6791 11.9447 26.3393 12.5859C26.5346 12.6619 26.7411 12.7322 26.9252 12.8363C27.0313 12.8981 27.1373 12.9769 27.1373 13.1147C27.1373 14.2622 24.8633 16.2563 22.5363 16.2731C20.2065 16.2534 17.9325 14.2594 17.9325 13.1119ZM24.6094 17.2125V17.6681C24.6094 18.2616 24.4141 18.7256 24.029 19.0491C23.6747 19.3472 23.1752 19.5131 22.6256 19.5131C21.755 19.5131 20.4604 19.0209 20.4604 17.6681V17.2125C21.1328 17.46 21.8415 17.6034 22.5307 17.6091H22.5363H22.5391C23.231 17.6034 23.9369 17.46 24.6094 17.2125ZM18.4794 18.6525C18.7416 18.5963 18.9983 18.54 19.2439 18.4866C19.6484 20.025 21.1747 20.8463 22.6256 20.8463C23.4821 20.8463 24.2773 20.5763 24.8689 20.0784C25.3599 19.665 25.6892 19.125 25.8371 18.4866C26.0798 18.54 26.3309 18.5963 26.5904 18.6497C26.7773 18.6891 26.9699 18.7313 27.1624 18.7734L23.7891 23.3297C23.3315 23.5519 22.9046 23.8388 22.5335 24.1763C22.1624 23.8388 21.7355 23.5519 21.2779 23.3297L17.9074 18.7734C18.0999 18.7313 18.2924 18.6919 18.4794 18.6525ZM12.1875 22.3397C12.1875 22.3369 12.1903 22.3313 12.1903 22.3256C12.4358 20.5003 14.4085 19.6538 16.5039 19.1053L19.2746 22.8488C18.3482 22.8516 17.433 23.1806 16.6881 23.9653C15.7366 24.9638 15.3097 26.3109 15.4074 27.6188H11.3588L12.1875 22.3397ZM17.6535 31.5084C17.433 31.6603 17.1708 31.7475 16.8862 31.7475H11.6657C11.4342 31.7475 11.2472 31.5563 11.2472 31.3228V28.9547H16.8862C16.9838 28.9547 17.0787 28.9659 17.1708 28.9856C17.7511 29.1122 18.2003 29.61 18.2533 30.2259C18.2589 30.2681 18.2589 30.3075 18.2589 30.3525C18.2589 30.8306 18.019 31.2553 17.6535 31.5084ZM25.3655 30.3216C25.3599 30.7238 25.4436 31.1091 25.5943 31.455L22.5363 34.5319L19.3834 31.365C19.5061 31.0528 19.5787 30.7097 19.5787 30.3525C19.5787 28.845 18.3705 27.6188 16.8862 27.6188H16.7271C16.6267 26.6484 16.9308 25.6388 17.6367 24.8934C18.7612 23.715 20.5497 24.1622 21.6657 25.1831C21.7411 25.2506 21.7997 25.3069 21.8499 25.3575C22.034 25.5347 22.2238 25.7147 22.5363 25.7147C22.8488 25.7147 23.0357 25.5347 23.2171 25.3603C23.2673 25.3125 23.3287 25.2534 23.4068 25.1831C24.5201 24.1622 26.3086 23.715 27.433 24.8963C28.1417 25.6388 28.4459 26.6484 28.3426 27.6216H28.1166C26.6295 27.6188 25.3823 28.8141 25.3655 30.3216ZM33.6998 31.3228C33.6998 31.5563 33.51 31.7475 33.2785 31.7475H28.0608C27.8069 31.7475 27.5698 31.6772 27.3661 31.5563C26.9615 31.3172 26.6881 30.87 26.6853 30.3609V30.3525C26.6853 29.6297 27.2238 29.0363 27.9129 28.9631C27.9604 28.9575 28.0106 28.9547 28.0608 28.9547H33.6998V31.3228ZM32.8795 22.3256L33.6021 27.6188H29.6596C29.76 26.3109 29.3331 24.9638 28.3817 23.9653C27.6367 23.1806 26.7215 22.8516 25.7924 22.8488L28.5658 19.1053C30.6641 19.6538 32.6311 20.5003 32.8795 22.3256ZM37.7288 20.9166L36.6936 18.6553C37.0564 18.7313 37.433 18.7734 37.8153 18.7734C38.139 18.7734 38.457 18.7425 38.7695 18.6863L37.7288 20.9166ZM37.8153 17.4347C35.4688 17.4347 33.577 15.4097 33.7556 12.9909C33.9035 10.9716 35.5106 9.34312 37.5 9.18844C39.8856 9.00562 41.8834 10.9237 41.8834 13.3059C41.8834 15.5841 40.0586 17.4347 37.8153 17.4347Z" fill="#00D6C0"/>
<path d="M19.8019 9.76219C20.1646 9.76219 20.4604 9.46126 20.4604 9.09282V8.89313C20.4604 8.52469 20.1646 8.22375 19.8019 8.22375C19.4364 8.22375 19.1406 8.52469 19.1406 8.89313V9.09282C19.1406 9.46126 19.4364 9.76219 19.8019 9.76219Z" fill="#00D6C0"/>
</g>
<defs>
<clipPath id="clip0_1_56">
<rect width="45" height="36" fill="white"/>
</clipPath>
</defs>
</svg>
