<svg width="40" height="47" viewBox="0 0 40 47" fill="none" xmlns="http://www.w3.org/2000/svg">
<g clip-path="url(#clip0_1_46)">
<path d="M20.099 3.60889C19.526 3.60889 19.0938 4.02328 19.0938 4.58456C19.0938 4.99371 19.526 5.41335 19.9583 5.55498C20.526 5.55498 20.9583 5.13534 20.9583 4.58456C21.099 4.02328 20.6719 3.60889 20.099 3.60889Z" fill="#00D6C0"/>
<path d="M39.1927 5.55502C36.6094 5.55502 34.4531 3.4673 34.4531 0.970424C34.4531 0.419643 34.0208 0 33.4479 0H6.60417C6.02604 0 5.59896 0.419643 5.59896 0.970424C5.59896 3.4673 3.44792 5.55502 0.859375 5.55502C0.286459 5.55502 -0.140625 5.96417 -0.140625 6.52545V21.5172C-0.140625 33.1728 7.75 43.7215 19.6667 47.1941C19.8125 47.1941 19.8125 47.1941 19.9583 47.1941C20.099 47.1941 20.099 47.1941 20.2396 47.1941C31.8698 43.8632 40.0521 33.4508 40.0521 21.5172V6.52545C40.1979 5.96417 39.7656 5.55502 39.1927 5.55502ZM38.3333 21.5172C38.3333 32.4804 31.0104 42.0587 20.099 45.3844C9.33333 42.1951 1.86458 32.4804 1.86458 21.5172V7.35424C4.73958 6.93984 7.17708 4.71574 7.60938 1.94609H32.5885C33.0208 4.71574 35.3125 6.93984 38.3333 7.35424V21.5172Z" fill="#00D6C0"/>
<path d="M35.7448 8.46625C33.7344 7.63221 32.1563 6.10576 31.2969 4.16491C31.1511 3.8869 30.8646 3.60889 30.4323 3.60889H23.8334C23.2552 3.60889 22.8229 4.02328 22.8229 4.58456C22.8229 5.13534 23.2552 5.55498 23.8334 5.55498H29.7188C30.724 7.49583 32.2969 9.02228 34.3125 9.9927V21.5171C34.3125 30.5395 28.7084 38.3081 19.9584 41.5026C11.1979 38.4497 5.59898 30.5395 5.59898 21.5171V9.9927C7.6094 9.02228 9.18752 7.49583 10.1927 5.55498H16.0781C16.6511 5.55498 17.0834 5.13534 17.0834 4.58456C17.0834 4.02328 16.6511 3.60889 16.0781 3.60889H9.47398C9.0469 3.60889 8.76044 3.8869 8.6146 4.16491C7.75002 6.10576 6.1719 7.63221 4.16148 8.46625C3.87502 8.60264 3.58856 8.88065 3.58856 9.30029V21.3755C3.58856 31.2319 9.90627 39.8398 19.5261 43.1655C19.6667 43.1655 19.6667 43.1655 19.8125 43.1655C19.9584 43.1655 20.099 43.1655 20.099 43.1655C29.7188 39.8398 36.0313 31.2319 36.0313 21.3755V9.30029C36.3229 9.02228 36.1771 8.60264 35.7448 8.46625Z" fill="#00D6C0"/>
<path d="M20.099 13.4653C15.3594 13.4653 11.4844 17.2106 11.4844 21.79C11.4844 26.3746 15.3594 30.1199 20.099 30.1199C24.8333 30.1199 28.7083 26.3746 28.7083 21.79C28.7083 17.2106 24.8333 13.4653 20.099 13.4653ZM20.099 28.1791C16.3646 28.1791 13.349 25.2625 13.349 21.79C13.349 18.1811 16.3646 15.4062 20.099 15.4062C23.8333 15.4062 26.8438 18.3227 26.8438 21.79C26.8438 25.2625 23.8333 28.1791 20.099 28.1791Z" fill="#00D6C0"/>
<path d="M24.5469 19.2931C24.1198 18.8787 23.5469 18.8787 23.2552 19.2931L19.0938 23.3164L17.8021 22.068C17.3698 21.6536 16.7969 21.6536 16.5104 22.068C16.0781 22.4876 16.0781 23.0384 16.5104 23.3164L18.375 25.1261C18.5209 25.2625 18.8073 25.4041 19.0938 25.4041C19.3802 25.4041 19.5261 25.2625 19.8125 25.1261L24.5469 20.5415C24.9792 20.1271 24.9792 19.5711 24.5469 19.2931Z" fill="#00D6C0"/>
</g>
<defs>
<clipPath id="clip0_1_46">
<rect width="40" height="47" fill="white"/>
</clipPath>
</defs>
</svg>
