<svg width="15" height="15" viewBox="0 0 15 15" fill="none" xmlns="http://www.w3.org/2000/svg">
<g clip-path="url(#clip0_1_334)">
<path d="M7.5 15C11.6421 15 15 11.6421 15 7.5C15 3.35786 11.6421 0 7.5 0C3.35786 0 0 3.35786 0 7.5C0 11.6421 3.35786 15 7.5 15Z" fill="#139BD0"/>
<path d="M7.74378 9.29382L6.87503 10.1313C6.83063 10.1793 6.77631 10.2169 6.71587 10.2418C6.65543 10.2666 6.59031 10.278 6.52503 10.2751C6.48366 10.2763 6.44312 10.2633 6.41015 10.2383C6.37717 10.2133 6.35375 10.1777 6.34378 10.1376C6.12503 9.46257 5.90628 8.78757 5.71878 8.11257C5.71234 8.08352 5.69775 8.05692 5.67672 8.03588C5.65568 8.01485 5.62908 8.00026 5.60003 7.99382L4.05003 7.50007C3.97032 7.47563 3.89454 7.43985 3.82503 7.39382C3.80312 7.37892 3.78518 7.35888 3.77278 7.33546C3.76039 7.31204 3.75391 7.28594 3.75391 7.25944C3.75391 7.23295 3.76039 7.20685 3.77278 7.18343C3.78518 7.16001 3.80312 7.13997 3.82503 7.12507C3.91356 7.04586 4.01503 6.98243 4.12503 6.93757L6.00003 6.20632L10.7813 4.33132C10.8393 4.29801 10.9057 4.28234 10.9725 4.28622C11.0392 4.29011 11.1034 4.31337 11.1571 4.35317C11.2108 4.39297 11.2518 4.44758 11.275 4.5103C11.2981 4.57303 11.3025 4.64115 11.2875 4.70632C11.2598 4.91673 11.2201 5.12539 11.1688 5.33132L10.125 10.2376C10.0438 10.6251 9.76878 10.7251 9.45003 10.4938L7.82503 9.37507L7.74378 9.29382ZM6.54378 9.78757C6.54463 9.773 6.54463 9.75839 6.54378 9.74382C6.57503 9.37507 6.61253 9.00007 6.64378 8.63132C6.64551 8.59284 6.65531 8.55515 6.67253 8.5207C6.68976 8.48624 6.71403 8.45579 6.74378 8.43132L8.21878 7.10632L9.87503 5.62507C9.90436 5.58727 9.92756 5.54508 9.94378 5.50007C9.89411 5.49191 9.84345 5.49191 9.79378 5.50007C9.72926 5.51984 9.66814 5.54934 9.61253 5.58757L6.01253 7.85007C5.99743 7.85521 5.98368 7.86369 5.9723 7.87487C5.96093 7.88605 5.95221 7.89965 5.94681 7.91466C5.9414 7.92967 5.93945 7.9457 5.94109 7.96157C5.94273 7.97744 5.94792 7.99273 5.95628 8.00632C6.04378 8.26257 6.12503 8.51882 6.20628 8.77507L6.54378 9.78757Z" fill="white"/>
</g>
<defs>
<clipPath id="clip0_1_334">
<rect width="15" height="15" fill="white"/>
</clipPath>
</defs>
</svg>
