<svg width="15" height="16" viewBox="0 0 15 16" fill="none" xmlns="http://www.w3.org/2000/svg">
<path d="M3.5625 14.3369C3.5625 13.8671 3.5625 13.391 3.5625 12.9212C3.5625 12.8099 3.5625 12.8223 3.46875 12.779C2.88918 12.5539 2.3508 12.2365 1.875 11.8393C1.35359 11.4163 0.927748 10.8897 0.625 10.2937C0.35813 9.71622 0.185164 9.1007 0.1125 8.46986C0.0797211 8.22389 0.0630197 7.97608 0.0625 7.72798C0.0625 7.49304 0.025 7.25811 0.01875 7.02937C0.0125 6.80062 0.01875 6.69552 0.01875 6.52859C0 6.18238 0 5.84853 0 5.5085C0.0187564 4.74205 0.179764 3.98554 0.475 3.27666C0.893616 2.28259 1.64348 1.46012 2.6 0.945904C3.3244 0.549467 4.11341 0.281636 4.93125 0.15456C5.43755 0.0688811 5.94914 0.0172429 6.4625 0C7.0875 0 7.7125 0 8.3 0C9.0829 0.00350476 9.86288 0.094762 10.625 0.272025C11.3518 0.434678 12.0451 0.719042 12.675 1.11283C13.4304 1.57802 14.0355 2.24734 14.4187 3.04173C14.6567 3.5398 14.8229 4.06837 14.9125 4.61206C14.9821 5.02049 15.0135 5.4344 15.0063 5.84853C15.0063 6.2813 15.0063 6.70788 14.9625 7.13447C14.9625 7.42504 14.9625 7.72179 14.9312 8.01236C14.8999 8.8096 14.7109 9.59303 14.375 10.3184C13.9314 11.1921 13.2236 11.9073 12.35 12.3648C11.6209 12.7705 10.8255 13.0467 10 13.1808C9.35957 13.2851 8.71153 13.3368 8.0625 13.3354H6.875C6.66684 13.3473 6.45816 13.3473 6.25 13.3354C6.22171 13.3318 6.19296 13.3356 6.16663 13.3464C6.1403 13.3573 6.11732 13.3748 6.1 13.3972L5.175 14.4791L3.9875 15.8331C3.94737 15.8801 3.90114 15.9217 3.85 15.9567C3.8259 15.9771 3.79666 15.9906 3.76541 15.9958C3.73415 16.001 3.70204 15.9978 3.67252 15.9863C3.643 15.9749 3.61717 15.9558 3.5978 15.931C3.57842 15.9061 3.56622 15.8766 3.5625 15.8454C3.55792 15.8106 3.55792 15.7752 3.5625 15.7403C3.5625 15.2705 3.5625 14.8006 3.5625 14.3369Z" fill="#7143B9"/>
<path d="M2.92501 4.19795C2.92607 3.9383 2.99514 3.68336 3.12549 3.45799C3.25584 3.23261 3.44302 3.04451 3.66876 2.91201C3.85756 2.78259 4.06974 2.69024 4.29376 2.63999C4.41361 2.60616 4.53977 2.60027 4.66231 2.6228C4.78485 2.64533 4.90044 2.69565 5.00001 2.76982C5.12258 2.86613 5.23559 2.97377 5.33751 3.0913C5.69928 3.49514 6.00606 3.94408 6.25001 4.4267C6.29285 4.51009 6.3284 4.59696 6.35626 4.68636C6.40172 4.80081 6.41584 4.92511 6.39719 5.04669C6.37853 5.16827 6.32776 5.28283 6.25001 5.37878C6.17745 5.44846 6.09787 5.51061 6.01251 5.56425C5.93554 5.6145 5.86243 5.67029 5.79376 5.73118C5.71861 5.79814 5.66408 5.88471 5.63644 5.98095C5.6088 6.07719 5.60917 6.17919 5.63751 6.27523C5.65693 6.35993 5.68413 6.44271 5.71876 6.52252C6.01519 7.1833 6.50501 7.74103 7.12501 8.12376C7.34232 8.26633 7.575 8.38453 7.81876 8.47616C7.91649 8.52015 8.0269 8.52813 8.13005 8.49865C8.2332 8.46917 8.3223 8.40418 8.38126 8.31541C8.44376 8.23504 8.50001 8.14849 8.57501 8.06812C8.708 7.91067 8.89094 7.80237 9.09407 7.76083C9.2972 7.7193 9.50856 7.74698 9.69376 7.83937C9.87943 7.92355 10.0554 8.02718 10.2188 8.14849C10.55 8.37724 10.875 8.61835 11.1938 8.87183C11.2768 8.94217 11.3522 9.0209 11.4188 9.10676C11.4949 9.20344 11.5461 9.31703 11.5679 9.43768C11.5896 9.55833 11.5814 9.68241 11.5438 9.79919C11.4752 10.0272 11.358 10.238 11.2 10.4174C10.9378 10.7477 10.5837 10.9948 10.1813 11.1284C10.072 11.1645 9.95863 11.1874 9.84376 11.1964C9.69815 11.1972 9.55379 11.1699 9.41876 11.116C9.28586 11.0742 9.15633 11.0225 9.03126 10.9615C8.40434 10.687 7.80217 10.3602 7.23126 9.98466C6.3836 9.44279 5.61589 8.78742 4.95001 8.03721C4.45499 7.46495 4.02142 6.84338 3.65626 6.18249C3.41818 5.75797 3.20937 5.31802 3.03126 4.86565C2.95987 4.65016 2.924 4.42471 2.92501 4.19795Z" fill="white"/>
<path d="M11.875 6.05897C11.875 6.20735 11.875 6.31863 11.875 6.42373C11.8603 6.50992 11.8142 6.58783 11.7455 6.64279C11.6768 6.69775 11.5901 6.72599 11.5018 6.72219C11.4135 6.71839 11.3297 6.68282 11.266 6.62217C11.2024 6.56151 11.1634 6.47995 11.1562 6.39282C11.1562 6.21971 11.1562 6.04661 11.1 5.8735C11.0177 5.32656 10.8265 4.80122 10.5375 4.3279C10.3204 3.99066 10.03 3.70553 9.68749 3.49328C9.27842 3.24338 8.82763 3.06753 8.35624 2.97396C8.1504 2.9271 7.94159 2.89405 7.73124 2.87504C7.68204 2.87181 7.6336 2.86139 7.58749 2.84413C7.52145 2.82547 7.46435 2.78404 7.42652 2.72734C7.38869 2.67064 7.37262 2.60241 7.38124 2.53501C7.37738 2.48479 7.38465 2.43434 7.40254 2.38719C7.42043 2.34003 7.4485 2.2973 7.4848 2.26199C7.5211 2.22667 7.56475 2.19961 7.61271 2.1827C7.66067 2.16579 7.71179 2.15943 7.76249 2.16407C8.53455 2.14368 9.29415 2.35959 9.93749 2.78231C10.3285 3.03337 10.6749 3.34673 10.9625 3.70967C11.5253 4.36886 11.8468 5.1966 11.875 6.05897Z" fill="white"/>
<path d="M10.625 5.97817C10.6336 6.07071 10.6336 6.16383 10.625 6.25637C10.6142 6.33447 10.5741 6.40571 10.5128 6.45606C10.4515 6.50642 10.3733 6.53222 10.2937 6.5284C10.2145 6.53935 10.134 6.5198 10.0689 6.47379C10.0038 6.42778 9.95898 6.35881 9.94374 6.2811C9.93881 6.21318 9.93881 6.145 9.94374 6.07708C9.91259 5.76914 9.83681 5.46724 9.71874 5.18064C9.63558 4.98415 9.5121 4.80686 9.35611 4.66001C9.20011 4.51315 9.01501 4.39992 8.81249 4.32747C8.52835 4.20712 8.23026 4.12198 7.92499 4.07399C7.8428 4.06335 7.76272 4.04042 7.68749 4.00599C7.65048 3.98938 7.61825 3.96387 7.59374 3.9318C7.54849 3.87712 7.52027 3.81063 7.5125 3.74039C7.50473 3.67014 7.51776 3.59918 7.54999 3.53613C7.57065 3.47925 7.60771 3.42961 7.65659 3.39335C7.70546 3.35709 7.76401 3.3358 7.82499 3.33211C7.93484 3.31638 8.0464 3.31638 8.15624 3.33211C8.46713 3.37278 8.77033 3.45818 9.05624 3.58559C9.41881 3.76644 9.74001 4.01894 9.99999 4.32747C10.2271 4.58424 10.4012 4.88247 10.5125 5.20537C10.587 5.45635 10.6249 5.71658 10.625 5.97817Z" fill="white"/>
<path d="M9.49374 5.89158C9.49991 5.98338 9.48933 6.07552 9.4625 6.16361C9.44174 6.22537 9.4038 6.2801 9.35304 6.32151C9.30227 6.36292 9.24073 6.38934 9.17548 6.39773C9.11023 6.40612 9.04391 6.39614 8.98413 6.36895C8.92435 6.34175 8.87353 6.29844 8.8375 6.24398C8.79166 6.18655 8.76153 6.11842 8.75 6.04614C8.73734 5.92989 8.71004 5.81566 8.66875 5.70611C8.62303 5.59743 8.5514 5.5013 8.45998 5.42594C8.36856 5.35058 8.26006 5.29823 8.14375 5.27334L8 5.24243H7.88125C7.80951 5.22945 7.74462 5.19205 7.69783 5.13673C7.65103 5.0814 7.62526 5.01163 7.625 4.93949C7.62006 4.85906 7.64266 4.77932 7.68915 4.71314C7.73564 4.64696 7.80331 4.59821 7.88125 4.57473C8.03659 4.53173 8.2009 4.53173 8.35625 4.57473C8.71489 4.68159 9.02304 4.91185 9.225 5.22388C9.38254 5.41342 9.47647 5.6468 9.49374 5.89158Z" fill="white"/>
</svg>
