<svg width="15" height="15" viewBox="0 0 15 15" fill="none" xmlns="http://www.w3.org/2000/svg">
<g clip-path="url(#clip0_1_329)">
<path d="M1.2 11.4451C0.201829 9.91587 -0.193272 8.07703 0.0898701 6.27839C0.373012 4.47976 1.31464 2.84686 2.73559 1.69036C4.15655 0.533866 5.95766 -0.0655123 7.79627 0.0062627C9.63487 0.0780377 11.3826 0.815958 12.7071 2.07963C14.0315 3.34329 14.8401 5.04452 14.9791 6.85964C15.1181 8.67475 14.5778 10.4771 13.4609 11.9237C12.344 13.3703 10.7286 14.3603 8.92188 14.7053C7.11519 15.0503 5.24335 14.7261 3.6625 13.7946L0 15.0003L1.2 11.4451Z" fill="#00A82D"/>
<path d="M5.69373 8.96552C4.78955 7.87289 4.21354 6.55111 4.03123 5.1506C4.00621 4.95464 4.02586 4.75563 4.08872 4.56816C4.15159 4.38069 4.25609 4.20952 4.39454 4.06721C4.533 3.92491 4.7019 3.81507 4.88886 3.74576C5.07582 3.67645 5.27609 3.64943 5.47498 3.66668H5.51248L6.19998 3.84598C6.24765 3.85868 6.29141 3.88282 6.32739 3.91625C6.36337 3.94969 6.39045 3.99139 6.40623 4.03766L6.87498 5.46593C6.89457 5.52204 6.8967 5.58266 6.88111 5.63997C6.86551 5.69729 6.8329 5.74866 6.78748 5.78745L6.11248 6.35011C6.06211 6.39078 6.02681 6.44685 6.01211 6.50951C5.9974 6.57217 6.00413 6.63788 6.03123 6.69635C6.25221 7.17804 6.53586 7.6291 6.87498 8.03807C7.21981 8.43292 7.61474 8.78206 8.04998 9.07682C8.10116 9.11543 8.16375 9.13634 8.22811 9.13634C8.29247 9.13634 8.35505 9.11543 8.40623 9.07682L9.08123 8.51416C9.12778 8.47595 9.18492 8.45255 9.24515 8.44703C9.30538 8.44152 9.36589 8.45414 9.41873 8.48325L10.7562 9.20048C10.7999 9.2238 10.837 9.25748 10.8643 9.29848C10.8915 9.33948 10.9081 9.38654 10.9125 9.43543L10.975 10.1341V10.1712C10.9574 10.3678 10.8958 10.5581 10.7947 10.7282C10.6935 10.8984 10.5553 11.0441 10.3902 11.1548C10.225 11.2655 10.037 11.3384 9.83976 11.3683C9.64254 11.3982 9.44107 11.3842 9.24998 11.3274C7.8756 10.9084 6.64917 10.1131 5.71249 9.03353L5.69373 8.96552Z" fill="#F3F3F3"/>
</g>
<defs>
<clipPath id="clip0_1_329">
<rect width="15" height="15" fill="white"/>
</clipPath>
</defs>
</svg>
